<svg width="200" height="200" viewBox="0 0 200 200" xmlns="http://www.w3.org/2000/svg">
    <defs>
        <!-- Maasai Pattern -->
        <pattern id="maasai-pattern" x="0" y="0" width="20" height="20" patternUnits="userSpaceOnUse">
            <rect width="10" height="10" fill="#FF0000" opacity="0.2"/>
            <rect x="10" y="10" width="10" height="10" fill="#FF0000" opacity="0.2"/>
        </pattern>
    </defs>
    
    <!-- Background -->
    <rect width="200" height="200" fill="url(#maasai-pattern)"/>
    
    <!-- Traditional Shield -->
    <path d="M80 40L120 40L120 140L100 160L80 140Z" 
          fill="#8B0000" stroke="#000" stroke-width="2"/>
    
    <!-- Shield Pattern -->
    <path d="M85 50L115 50L115 130L100 145L85 130Z" 
          fill="#FFD700" stroke="#000" stroke-width="1"/>
    
    <!-- Beaded Necklace -->
    <path d="M60 70Q100 90 140 70" stroke="#FF0000" stroke-width="8"/>
    <circle cx="70" cy="70" r="4" fill="#FFD700"/>
    <circle cx="90" cy="73" r="4" fill="#0000FF"/>
    <circle cx="110" cy="73" r="4" fill="#FFD700"/>
    <circle cx="130" cy="70" r="4" fill="#0000FF"/>
    
    <!-- Traditional Spears -->
    <path d="M60 30L65 70L55 70Z" fill="#8B4513"/>
    <path d="M140 30L145 70L135 70Z" fill="#8B4513"/>
</svg> 